<svg width="24" height="24" viewBox="0 0 24 24" fill="none" xmlns="http://www.w3.org/2000/svg">
<path d="M7.88462 10.7692C8.32909 10.7692 8.76921 10.6817 9.17985 10.5116C9.59049 10.3415 9.96361 10.0922 10.2779 9.7779C10.5922 9.46361 10.8415 9.09049 11.0116 8.67985C11.1817 8.26921 11.2692 7.82909 11.2692 7.38462C11.2692 6.94014 11.1817 6.50002 11.0116 6.08938C10.8415 5.67874 10.5922 5.30562 10.2779 4.99133C9.96361 4.67704 9.59049 4.42773 9.17985 4.25764C8.76921 4.08755 8.32909 4 7.88462 4C6.98696 4 6.12607 4.35659 5.49133 4.99133C4.85659 5.62607 4.5 6.48696 4.5 7.38462C4.5 8.28227 4.85659 9.14316 5.49133 9.7779C6.12607 10.4126 6.98696 10.7692 7.88462 10.7692ZM17.1154 10.7692C17.5599 10.7692 18 10.6817 18.4106 10.5116C18.8213 10.3415 19.1944 10.0922 19.5087 9.7779C19.823 9.46361 20.0723 9.09049 20.2424 8.67985C20.4125 8.26921 20.5 7.82909 20.5 7.38462C20.5 6.94014 20.4125 6.50002 20.2424 6.08938C20.0723 5.67874 19.823 5.30562 19.5087 4.99133C19.1944 4.67704 18.8213 4.42773 18.4106 4.25764C18 4.08755 17.5599 4 17.1154 4C16.2177 4 15.3568 4.35659 14.7221 4.99133C14.0874 5.62607 13.7308 6.48696 13.7308 7.38462C13.7308 8.28227 14.0874 9.14316 14.7221 9.7779C15.3568 10.4126 16.2177 10.7692 17.1154 10.7692ZM7.88462 20C8.78227 20 9.64316 19.6434 10.2779 19.0087C10.9126 18.3739 11.2692 17.513 11.2692 16.6154C11.2692 15.7177 10.9126 14.8568 10.2779 14.2221C9.64316 13.5874 8.78227 13.2308 7.88462 13.2308C6.98696 13.2308 6.12607 13.5874 5.49133 14.2221C4.85659 14.8568 4.5 15.7177 4.5 16.6154C4.5 17.513 4.85659 18.3739 5.49133 19.0087C6.12607 19.6434 6.98696 20 7.88462 20ZM17.1154 20C18.013 20 18.8739 19.6434 19.5087 19.0087C20.1434 18.3739 20.5 17.513 20.5 16.6154C20.5 15.7177 20.1434 14.8568 19.5087 14.2221C18.8739 13.5874 18.013 13.2308 17.1154 13.2308C16.2177 13.2308 15.3568 13.5874 14.7221 14.2221C14.0874 14.8568 13.7308 15.7177 13.7308 16.6154C13.7308 17.513 14.0874 18.3739 14.7221 19.0087C15.3568 19.6434 16.2177 20 17.1154 20Z" stroke="currentColor" stroke-width="1.6" stroke-linecap="round" stroke-linejoin="round"/>
</svg>
