<svg width="24" height="24" viewBox="0 0 24 24" fill="none" xmlns="http://www.w3.org/2000/svg">
<path d="M7 17.5349L11.413 17.5199L21.045 7.97988C21.423 7.60188 21.631 7.09988 21.631 6.56588C21.631 6.03188 21.423 5.52988 21.045 5.15188L19.459 3.56588C18.703 2.80988 17.384 2.81388 16.634 3.56288L7 13.1049V17.5349ZM18.045 4.97988L19.634 6.56288L18.037 8.14488L16.451 6.55988L18.045 4.97988ZM9 13.9389L15.03 7.96588L16.616 9.55188L10.587 15.5229L9 15.5279V13.9389Z" fill="currentColor"/>
<path d="M5 21.522H19C20.103 21.522 21 20.625 21 19.522V10.854L19 12.854V19.522H8.158C8.132 19.522 8.105 19.532 8.079 19.532C8.046 19.532 8.013 19.523 7.979 19.522H5V5.52197H11.847L13.847 3.52197H5C3.897 3.52197 3 4.41897 3 5.52197V19.522C3 20.625 3.897 21.522 5 21.522Z" fill="currentColor"/>
</svg>
