<svg width="24" height="24" viewBox="0 0 24 24" fill="none" xmlns="http://www.w3.org/2000/svg">
<g clip-path="url(#clip0_178_967)">
<rect width="20" height="15" transform="translate(2 4.5)" fill="white"/>
<path fill-rule="evenodd" clip-rule="evenodd" d="M2 4.5V19.5H22V4.5H2Z" fill="#2E42A5"/>
<mask id="mask0_178_967" style="mask-type:luminance" maskUnits="userSpaceOnUse" x="2" y="4" width="20" height="16">
<path fill-rule="evenodd" clip-rule="evenodd" d="M2 4.5V19.5H22V4.5H2Z" fill="white"/>
</mask>
<g mask="url(#mask0_178_967)">
<path d="M-0.226562 18.4295L4.17449 20.2908L22.1003 6.52476L24.4217 3.75883L19.7154 3.13674L12.4039 9.0689L6.51893 13.0658L-0.226562 18.4295Z" fill="white"/>
<path d="M0.375732 19.7331L2.61787 20.8132L23.5879 3.5014H20.4397L0.375732 19.7331Z" fill="#F50100"/>
<path d="M24.2266 18.4295L19.8255 20.2908L1.89973 6.52476L-0.421722 3.75883L4.28457 3.13674L11.5961 9.0689L17.4811 13.0658L24.2266 18.4295Z" fill="white"/>
<path d="M24.0752 19.3662L21.8331 20.4463L12.9038 13.0342L10.2565 12.2061L-0.646297 3.76906H2.50192L13.3986 12.0058L16.293 12.9988L24.0752 19.3662Z" fill="#F50100"/>
<mask id="path-7-inside-1_178_967" fill="white">
<path d="M14.3643 9.50098H23.2695V14.501H14.3643V20.751H9.6416V14.501H0.769531V9.50098H9.6416V3.25098H14.3643V9.50098Z"/>
</mask>
<path d="M14.3643 9.50098H23.2695V14.501H14.3643V20.751H9.6416V14.501H0.769531V9.50098H9.6416V3.25098H14.3643V9.50098Z" fill="#F50100"/>
<path d="M14.3643 9.50098H13.1143V10.751H14.3643V9.50098ZM23.2695 9.50098H24.5195V8.25098H23.2695V9.50098ZM23.2695 14.501V15.751H24.5195V14.501H23.2695ZM14.3643 14.501V13.251H13.1143V14.501H14.3643ZM14.3643 20.751V22.001H15.6143V20.751H14.3643ZM9.6416 20.751H8.3916V22.001H9.6416V20.751ZM9.6416 14.501H10.8916V13.251H9.6416V14.501ZM0.769531 14.501H-0.480469V15.751H0.769531V14.501ZM0.769531 9.50098V8.25098H-0.480469V9.50098H0.769531ZM9.6416 9.50098V10.751H10.8916V9.50098H9.6416ZM9.6416 3.25098V2.00098H8.3916V3.25098H9.6416ZM14.3643 3.25098H15.6143V2.00098H14.3643V3.25098ZM14.3643 9.50098V10.751H23.2695V9.50098V8.25098H14.3643V9.50098ZM23.2695 9.50098H22.0195V14.501H23.2695H24.5195V9.50098H23.2695ZM23.2695 14.501V13.251H14.3643V14.501V15.751H23.2695V14.501ZM14.3643 14.501H13.1143V20.751H14.3643H15.6143V14.501H14.3643ZM14.3643 20.751V19.501H9.6416V20.751V22.001H14.3643V20.751ZM9.6416 20.751H10.8916V14.501H9.6416H8.3916V20.751H9.6416ZM9.6416 14.501V13.251H0.769531V14.501V15.751H9.6416V14.501ZM0.769531 14.501H2.01953V9.50098H0.769531H-0.480469V14.501H0.769531ZM0.769531 9.50098V10.751H9.6416V9.50098V8.25098H0.769531V9.50098ZM9.6416 9.50098H10.8916V3.25098H9.6416H8.3916V9.50098H9.6416ZM9.6416 3.25098V4.50098H14.3643V3.25098V2.00098H9.6416V3.25098ZM14.3643 3.25098H13.1143V9.50098H14.3643H15.6143V3.25098H14.3643Z" fill="white" mask="url(#path-7-inside-1_178_967)"/>
</g>
</g>
<defs>
<clipPath id="clip0_178_967">
<rect width="20" height="15" fill="white" transform="translate(2 4.5)"/>
</clipPath>
</defs>
</svg>
