<svg width="24" height="24" viewBox="0 0 24 24" fill="none" xmlns="http://www.w3.org/2000/svg">
<path d="M17.2078 21.167L14.4578 18.167L15.6178 17.007L17.2078 18.597L20.7978 15.007L21.9578 16.417M13.0078 21.167H5.20776C4.09776 21.167 3.20776 20.277 3.20776 19.167V5.16699C3.20776 4.05699 4.09776 3.16699 5.20776 3.16699H19.2078C20.3178 3.16699 21.2078 4.05699 21.2078 5.16699V12.967C20.5978 12.617 19.9278 12.367 19.2078 12.247V5.16699H5.20776V19.167H12.2878C12.4078 19.887 12.6578 20.557 13.0078 21.167ZM12.2078 17.167H7.20776V15.167H12.2078M14.8878 13.167H7.20776V11.167H17.2078V12.247C16.3578 12.387 15.5778 12.707 14.8878 13.167ZM17.2078 9.16699H7.20776V7.16699H17.2078" fill="currentColor"/>
</svg>
