<svg width="24" height="24" viewBox="0 0 24 24" fill="none" xmlns="http://www.w3.org/2000/svg">
<path d="M7.26547 9.37812L13.0705 11.4714C13.6575 11.7001 14.1668 12.4425 13.6964 13.2496C13.3856 13.8582 11.0679 16.3831 11.0679 16.3831C11.055 16.4305 3.57957 13.6553 3.57957 13.6553C2.97101 13.4222 2.6171 12.7878 2.81563 12.0497C3.01417 11.3117 6.56196 9.09758 7.26547 9.3738V9.37812Z" fill="#B72927"/>
<path d="M7.2706 9.37397L13.0757 11.4672C13.6627 11.696 14.1719 12.4384 13.7015 13.2455C13.3907 13.854 11.073 16.3789 11.073 16.3789C11.0601 16.4264 3.5847 13.6512 3.5847 13.6512C2.97614 13.4181 2.62222 12.7836 2.82076 12.0456C3.0193 11.3076 6.56708 9.09343 7.2706 9.36965V9.37397Z" fill="url(#paint0_linear_214_3752)" style="mix-blend-mode:multiply"/>
<path d="M7.26547 9.37397L13.0705 11.4672C13.6575 11.696 14.1668 12.4384 13.6964 13.2455C13.3856 13.854 11.0679 16.3789 11.0679 16.3789C11.055 16.4264 3.57957 13.6512 3.57957 13.6512C2.97101 13.4181 2.6171 12.7836 2.81563 12.0456C3.01417 11.3076 6.56196 9.09343 7.26547 9.36965V9.37397Z" fill="url(#paint1_linear_214_3752)" style="mix-blend-mode:multiply"/>
<path d="M14.6935 9.05447C14.905 8.86025 17.9996 5.99872 21.979 2.55452C22.0308 2.50704 21.979 2.42503 21.9142 2.45525C20.0799 3.39183 16.394 4.25504 16.394 4.25504L8.8323 5.66206C6.25563 6.18862 6.01825 6.62023 4.97808 8.29485L4.70185 8.73077C4.68891 8.75235 4.24867 9.5465 2.83301 12.0023C3.26461 11.2557 3.75232 11.1952 6.6527 10.6514C7.20516 10.5349 8.52155 10.2328 9.34591 10.0644C10.4897 9.83136 14.387 9.1149 14.6633 9.0631C14.6762 9.0631 14.6805 9.05879 14.6892 9.05016L14.6935 9.05447Z" fill="#E73928"/>
<path d="M4.9608 15.4035L2 20.7252L7.81371 19.3527C10.3861 18.8132 10.6234 18.3816 11.6593 16.7027L11.9355 16.2624C11.9355 16.2624 12.2679 15.7531 13.6965 13.2542C13.2908 13.9965 11.6981 13.9836 9.98036 14.3547C9.4279 14.4756 4.96512 15.4035 4.96512 15.4035H4.9608Z" fill="#E73928"/>
<defs>
<linearGradient id="paint0_linear_214_3752" x1="10.1149" y1="16.8752" x2="7.36987" y2="10.2544" gradientUnits="userSpaceOnUse">
<stop stop-color="white"/>
<stop offset="0.32" stop-color="#FDFCFD"/>
<stop offset="0.47" stop-color="#F9F5F6"/>
<stop offset="0.57" stop-color="#F2E9EA"/>
<stop offset="0.66" stop-color="#E8D7DA"/>
<stop offset="0.74" stop-color="#DABFC4"/>
<stop offset="0.81" stop-color="#CAA3AA"/>
<stop offset="0.87" stop-color="#B6818B"/>
<stop offset="0.93" stop-color="#A05966"/>
<stop offset="0.98" stop-color="#872D3E"/>
<stop offset="1" stop-color="#7E1E30"/>
</linearGradient>
<linearGradient id="paint1_linear_214_3752" x1="8.73724" y1="13.3275" x2="10.8219" y2="17.1342" gradientUnits="userSpaceOnUse">
<stop stop-color="white"/>
<stop offset="0.22" stop-color="#FCFCFC"/>
<stop offset="0.35" stop-color="#F3F3F3"/>
<stop offset="0.47" stop-color="#E5E5E5"/>
<stop offset="0.57" stop-color="#D0D0D0"/>
<stop offset="0.66" stop-color="#B5B5B5"/>
<stop offset="0.75" stop-color="#959595"/>
<stop offset="0.83" stop-color="#6D6D6D"/>
<stop offset="0.91" stop-color="#404040"/>
<stop offset="0.98" stop-color="#0E0E0E"/>
<stop offset="1"/>
</linearGradient>
</defs>
</svg>
