<svg width="30" height="30" viewBox="0 0 30 30" fill="none" xmlns="http://www.w3.org/2000/svg">
<path d="M8 23.75H10C10.3542 23.75 10.651 23.8698 10.8906 24.1094C11.1302 24.349 11.25 24.6458 11.25 25C11.25 25.3542 11.1302 25.651 10.8906 25.8906C10.651 26.1302 10.3542 26.25 10 26.25H5C4.64583 26.25 4.34896 26.1302 4.10938 25.8906C3.86979 25.651 3.75 25.3542 3.75 25V20C3.75 19.6458 3.86979 19.349 4.10938 19.1094C4.34896 18.8698 4.64583 18.75 5 18.75C5.35417 18.75 5.65104 18.8698 5.89062 19.1094C6.13021 19.349 6.25 19.6458 6.25 20V22L9.25 19C9.47917 18.7708 9.77083 18.6562 10.125 18.6562C10.4792 18.6562 10.7708 18.7708 11 19C11.2292 19.2292 11.3438 19.5208 11.3438 19.875C11.3438 20.2292 11.2292 20.5208 11 20.75L8 23.75ZM23.75 8L20.75 11C20.5208 11.2292 20.2292 11.3438 19.875 11.3438C19.5208 11.3438 19.2292 11.2292 19 11C18.7708 10.7708 18.6562 10.4792 18.6562 10.125C18.6562 9.77083 18.7708 9.47917 19 9.25L22 6.25H20C19.6458 6.25 19.349 6.13021 19.1094 5.89062C18.8698 5.65104 18.75 5.35417 18.75 5C18.75 4.64583 18.8698 4.34896 19.1094 4.10938C19.349 3.86979 19.6458 3.75 20 3.75H25C25.3542 3.75 25.651 3.86979 25.8906 4.10938C26.1302 4.34896 26.25 4.64583 26.25 5V10C26.25 10.3542 26.1302 10.651 25.8906 10.8906C25.651 11.1302 25.3542 11.25 25 11.25C24.6458 11.25 24.349 11.1302 24.1094 10.8906C23.8698 10.651 23.75 10.3542 23.75 10V8Z" fill="currentColor"/>
</svg>
